<?xml version="1.0" encoding="iso-8859-1"?>
<!-- Generator: Adobe Illustrator 19.0.0, SVG Export Plug-In . SVG Version: 6.00 Build 0)  -->
<svg xmlns="http://www.w3.org/2000/svg" xmlns:xlink="http://www.w3.org/1999/xlink" version="1.1" id="Layer_1" x="0px" y="0px" viewBox="0 0 512 512" style="enable-background:new 0 0 512 512;" xml:space="preserve" width="512px" height="512px">
<g>
	<g>
		<path d="M466.966,113.179H360.738c-2.034-12.215-12.672-21.558-25.454-21.558h-7.663c-5.317,0-9.642-4.326-9.642-9.642V63.381    c0-26.033-21.18-47.213-47.213-47.213h-29.532c-26.033,0-47.213,21.18-47.213,47.213v18.598c0,5.317-4.326,9.642-9.642,9.642    h-7.663c-12.783,0-23.419,9.343-25.455,21.558H45.034C20.202,113.179,0,133.381,0,158.213v292.584    c0,24.833,20.202,45.034,45.034,45.034h421.931c24.833,0,45.034-20.202,45.034-45.034V158.213    C512,133.381,491.798,113.179,466.966,113.179z M167.074,117.431c0-5.317,4.326-9.642,9.642-9.642h7.663    c14.232,0,25.811-11.579,25.811-25.81V63.381c0-17.118,13.926-31.044,31.044-31.044h29.532c17.118,0,31.044,13.926,31.044,31.044    v18.598c0,14.231,11.579,25.81,25.81,25.81h7.663c5.317,0,9.642,4.326,9.642,9.642v50.778c0,5.317-4.326,9.642-9.642,9.642    H176.715c-5.317,0-9.642-4.326-9.642-9.642V117.431z M495.832,450.797c0,15.942-12.924,28.866-28.866,28.866H45.034    c-15.942,0-28.866-12.924-28.866-28.866V158.213c0-15.942,12.924-28.866,28.866-28.866h105.871v26.947H51.2    c-4.465,0-8.084,3.62-8.084,8.084v280.253c0,4.465,3.62,8.084,8.084,8.084h272.928c4.465,0,8.084-3.62,8.084-8.084    c0-4.465-3.62-8.084-8.084-8.084H59.284V172.463h91.978c2.034,12.215,12.672,21.558,25.455,21.558h158.568    c12.783,0,23.419-9.343,25.454-21.558h91.977v264.084h-89.209c-4.465,0-8.084,3.62-8.084,8.084c0,4.465,3.62,8.084,8.084,8.084    H460.8c4.465,0,8.084-3.62,8.084-8.084V164.379c0-4.465-3.62-8.084-8.084-8.084h-99.705v-26.947h105.871    c15.942,0,28.866,12.924,28.866,28.866V450.797z" fill="#1863ad"/>
	</g>
</g>
<g>
	<g>
		<path d="M256,102.4c-16.344,0-29.642,13.298-29.642,29.642s13.298,29.642,29.642,29.642s29.642-13.298,29.642-29.642    S272.344,102.4,256,102.4z M256,145.516c-7.43,0-13.474-6.044-13.474-13.474c0-7.43,6.044-13.474,13.474-13.474    c7.43,0,13.474,6.044,13.474,13.474C269.474,139.472,263.43,145.516,256,145.516z" fill="#1863ad"/>
	</g>
</g>
<g>
	<g>
		<path d="M392.58,257.772l-10.779-21.558c-0.018-0.038-0.042-0.071-0.061-0.108c-0.039-0.074-0.082-0.144-0.123-0.218    c-0.134-0.239-0.277-0.469-0.431-0.69c-0.045-0.065-0.089-0.13-0.137-0.194c-0.425-0.572-0.916-1.074-1.458-1.503    c-0.025-0.019-0.045-0.043-0.07-0.063c-0.026-0.021-0.055-0.034-0.081-0.054c-0.28-0.211-0.568-0.409-0.87-0.581    c-0.003-0.002-0.006-0.004-0.011-0.006c-0.291-0.165-0.595-0.305-0.903-0.432c-0.091-0.038-0.181-0.071-0.273-0.106    c-0.253-0.094-0.51-0.176-0.771-0.244c-0.066-0.017-0.129-0.039-0.195-0.055c-0.314-0.073-0.632-0.125-0.953-0.161    c-0.091-0.011-0.182-0.015-0.273-0.023c-0.264-0.02-0.529-0.028-0.797-0.023c-0.075,0.001-0.151,0-0.226,0.003    c-0.331,0.016-0.663,0.053-0.993,0.11c-0.066,0.012-0.13,0.029-0.195,0.042c-0.271,0.054-0.539,0.124-0.806,0.207    c-0.089,0.028-0.178,0.055-0.267,0.086c-0.322,0.112-0.641,0.239-0.954,0.396l-21.558,10.779    c-3.993,1.997-5.612,6.852-3.615,10.847c1.996,3.995,6.851,5.612,10.847,3.615l5.752-2.876    c-10.58,35.469-28.956,61.73-54.767,78.195c-38.106,24.306-82.523,20.628-98.022,18.35c-3.281-19.016-19.883-33.531-39.822-33.531    c-22.289,0-40.421,18.132-40.421,40.421c0,22.289,18.132,40.421,40.421,40.421c19.046,0,35.049-13.246,39.303-31.008    c5.834,0.813,14.239,1.641,24.289,1.641c22.781,0,54-4.253,82.794-22.566c28.522-18.14,48.905-46.426,60.78-84.247l1.182,2.364    c1.415,2.833,4.272,4.47,7.237,4.47c1.215,0,2.448-0.276,3.61-0.856C392.957,266.622,394.576,261.767,392.58,257.772z     M169.768,382.653c-13.372,0-24.253-10.88-24.253-24.253c0-13.372,10.88-24.253,24.253-24.253s24.253,10.88,24.253,24.253    C194.021,371.772,183.141,382.653,169.768,382.653z" fill="#1863ad"/>
	</g>
</g>
<g>
	<g>
		<path d="M132.697,245.222l10.451-10.451c3.157-3.158,3.157-8.276,0-11.433c-3.158-3.156-8.276-3.156-11.433,0l-10.451,10.451    l-10.451-10.451c-3.158-3.156-8.276-3.156-11.433,0c-3.157,3.158-3.157,8.276,0,11.433l10.451,10.451L99.38,255.673    c-3.158,3.157-3.158,8.275-0.002,11.433c1.579,1.578,3.649,2.367,5.717,2.367s4.138-0.789,5.717-2.367l10.451-10.451    l10.451,10.451c1.579,1.578,3.649,2.367,5.717,2.367s4.138-0.789,5.717-2.367c3.157-3.158,3.157-8.276,0-11.433L132.697,245.222z" fill="#1863ad"/>
	</g>
</g>
<g>
	<g>
		<path d="M412.95,374.567l10.451-10.451c3.157-3.158,3.157-8.276,0-11.433c-3.158-3.156-8.276-3.156-11.433,0l-10.451,10.451    l-10.451-10.451c-3.159-3.155-8.277-3.155-11.435,0c-3.157,3.158-3.157,8.276,0,11.433l10.451,10.451l-10.451,10.451    c-3.157,3.158-3.157,8.276,0,11.433c1.579,1.578,3.649,2.367,5.717,2.367c2.068,0,4.138-0.789,5.717-2.367l10.451-10.451    l10.451,10.451c1.579,1.578,3.649,2.367,5.717,2.367s4.138-0.789,5.717-2.367c3.157-3.158,3.157-8.276,0-11.433L412.95,374.567z" fill="#1863ad"/>
	</g>
</g>
<g>
	<g>
		<path d="M272.824,266.78l10.451-10.451c3.157-3.158,3.157-8.276,0-11.433c-3.158-3.156-8.276-3.156-11.433,0l-10.451,10.451    l-10.451-10.451c-3.158-3.156-8.276-3.156-11.433,0c-3.157,3.158-3.157,8.276,0,11.433l10.451,10.451l-10.451,10.451    c-3.158,3.157-3.158,8.275-0.002,11.433c1.579,1.578,3.649,2.367,5.717,2.367s4.138-0.789,5.717-2.367l10.451-10.451    l10.451,10.451c1.579,1.578,3.649,2.367,5.717,2.367s4.138-0.789,5.717-2.367c3.157-3.158,3.157-8.276,0-11.433L272.824,266.78z" fill="#1863ad"/>
	</g>
</g>
<g>
</g>
<g>
</g>
<g>
</g>
<g>
</g>
<g>
</g>
<g>
</g>
<g>
</g>
<g>
</g>
<g>
</g>
<g>
</g>
<g>
</g>
<g>
</g>
<g>
</g>
<g>
</g>
<g>
</g>
</svg>
