<?xml version="1.0" encoding="iso-8859-1"?>
<!-- Generator: Adobe Illustrator 19.0.0, SVG Export Plug-In . SVG Version: 6.00 Build 0)  -->
<svg xmlns="http://www.w3.org/2000/svg" xmlns:xlink="http://www.w3.org/1999/xlink" version="1.1" id="Layer_1" x="0px" y="0px" viewBox="0 0 512 512" style="enable-background:new 0 0 512 512;" xml:space="preserve" width="512px" height="512px">
<g>
	<g>
		<path d="M486.4,51.2H25.6C11.46,51.2,0,62.66,0,76.8v281.6C0,372.54,11.46,384,25.6,384h179.2v51.2H102.4    c-7.074,0-12.8,5.726-12.8,12.8c0,7.074,5.726,12.8,12.8,12.8h307.2c7.074,0,12.8-5.726,12.8-12.8c0-7.074-5.726-12.8-12.8-12.8    H307.2V384h179.2c14.14,0,25.6-11.46,25.6-25.6V76.8C512,62.66,500.54,51.2,486.4,51.2z M281.6,435.2h-51.2V384h51.2V435.2z     M486.4,358.4H25.6V76.8h460.8V358.4z" fill="#444444"/>
	</g>
</g>
<g>
	<g>
		<path d="M256,102.4c-42.351,0-76.8,34.449-76.8,76.8S213.649,256,256,256c42.351,0,76.8-34.449,76.8-76.8S298.351,102.4,256,102.4    z M256,230.4c-28.279,0-51.2-22.921-51.2-51.2S227.721,128,256,128c28.279,0,51.2,22.921,51.2,51.2S284.279,230.4,256,230.4z" fill="#444444"/>
	</g>
</g>
<g>
	<g>
		<path d="M332.39,277.026C330.18,264.849,319.573,256,307.2,256H256h-51.2c-12.373,0-22.972,8.849-25.182,21.026L169.472,332.8    h26.018l9.31-51.2h38.4v51.2h25.6v-51.2h38.4l9.31,51.2h26.018L332.39,277.026z" fill="#444444"/>
	</g>
</g>
<g>
</g>
<g>
</g>
<g>
</g>
<g>
</g>
<g>
</g>
<g>
</g>
<g>
</g>
<g>
</g>
<g>
</g>
<g>
</g>
<g>
</g>
<g>
</g>
<g>
</g>
<g>
</g>
<g>
</g>
</svg>
